<svg width="18px" height="18px" viewBox="0 0 24 24" fill="currentColor" >
    <path d=" M 12.024 24 Q 6.981 24 3.49 20.51 Q 0 17.019 0 11.976 Q 0 7.367 3.006 3.977 Q 6.012 0.585 10.689 0.018 Q 11.122 -0.05 11.457 0.135 Q 11.79 0.318 11.991 0.62 Q 12.192 0.92 12.208 1.32 Q 12.225 1.722 11.958 2.088 Q 11.389 2.957 11.106 3.926 Q 10.822 4.895 10.822 5.964 Q 10.822 8.97 12.927 11.073 Q 15.03 13.178 18.036 13.178 Q 19.072 13.178 20.091 12.878 Q 21.11 12.576 21.912 12.042 Q 22.278 11.808 22.664 11.825 Q 23.048 11.843 23.348 12.009 Q 23.682 12.176 23.865 12.51 Q 24.05 12.845 23.982 13.311 Q 23.514 17.921 20.058 20.961 Q 16.601 24 12.024 24 Z "/>
</svg>