<svg width="18px" height="18px" viewBox="0 0 24 24" fill="currentColor" >
    <path d=" M 12 15.273 Q 13.364 15.273 14.318 14.318 Q 15.273 13.364 15.273 12 Q 15.273 10.636 14.318 9.682 Q 13.364 8.727 12 8.727 Q 10.636 8.727 9.682 9.682 Q 8.727 10.636 8.727 12 Q 8.727 13.364 9.682 14.318 Q 10.636 15.273 12 15.273 Z  M 12 17.455 Q 9.736 17.455 8.141 15.859 Q 6.545 14.264 6.545 12 Q 6.545 9.736 8.141 8.141 Q 9.736 6.545 12 6.545 Q 14.264 6.545 15.859 8.141 Q 17.455 9.736 17.455 12 Q 17.455 14.264 15.859 15.859 Q 14.264 17.455 12 17.455 Z  M 4.364 13.091 L 0 13.091 L 0 10.909 L 4.364 10.909 L 4.364 13.091 Z  M 24 13.091 L 19.636 13.091 L 19.636 10.909 L 24 10.909 L 24 13.091 Z  M 10.909 4.364 L 10.909 0 L 13.091 0 L 13.091 4.364 L 10.909 4.364 Z  M 10.909 24 L 10.909 19.636 L 13.091 19.636 L 13.091 24 L 10.909 24 Z  M 5.891 7.364 L 3.136 4.718 L 4.691 3.109 L 7.309 5.836 L 5.891 7.364 Z  M 19.309 20.891 L 16.664 18.136 L 18.109 16.636 L 20.864 19.282 L 19.309 20.891 Z  M 16.636 5.891 L 19.282 3.136 L 20.891 4.691 L 18.164 7.309 L 16.636 5.891 Z  M 3.109 19.309 L 5.864 16.664 L 7.364 18.109 L 4.718 20.864 L 3.109 19.309 Z "/>
</svg>