<?xml version="1.0" encoding="UTF-8" standalone="no"?><!-- Generator: Gravit.io --><svg xmlns="http://www.w3.org/2000/svg" xmlns:xlink="http://www.w3.org/1999/xlink" style="isolation:isolate" viewBox="0 0 50 50" width="50pt" height="50pt"><defs><clipPath id="_clipPath_wYJbT5ZcYiClLzrodIa5NdvrwGtsuM8J"><rect width="50" height="50"/></clipPath></defs><g clip-path="url(#_clipPath_wYJbT5ZcYiClLzrodIa5NdvrwGtsuM8J)"><rect width="50" height="50" style="fill:rgb(0,0,0)" fill-opacity="0"/><circle vector-effect="non-scaling-stroke" cx="25.00000000000002" cy="24.999999999999908" r="25.00000000000003" fill="rgb(255,255,255)"/><path d=" M 16.482 15.218 C 18.301 10.465 22.912 7.108 28.3 7.108 C 35.32 7.108 41.019 12.805 41.019 19.826 C 41.019 24.337 38.664 28.304 35.097 30.533 C 35.144 30.114 35.163 29.686 35.163 29.253 C 35.163 27.455 34.838 25.732 34.243 24.139 C 35.141 22.936 35.664 21.44 35.664 19.826 C 35.664 15.761 32.364 12.463 28.3 12.463 C 26.171 12.463 24.251 13.368 22.917 14.828 C 22.146 14.701 21.352 14.635 20.545 14.635 C 19.134 14.635 17.77 14.836 16.482 15.218 Z  M 7.827 29.253 C 7.827 22.234 13.526 16.535 20.545 16.535 C 27.564 16.535 33.263 22.234 33.263 29.253 C 33.263 36.274 27.564 41.971 20.545 41.971 C 13.526 41.971 7.827 36.274 7.827 29.253 Z  M 13.182 29.253 C 13.182 25.19 16.481 21.89 20.545 21.89 C 24.608 21.89 27.908 25.19 27.908 29.253 C 27.908 33.318 24.608 36.616 20.545 36.616 C 16.481 36.616 13.182 33.318 13.182 29.253 Z " fill-rule="evenodd" fill="rgb(0,0,0)"/></g></svg>