<?xml version="1.0" encoding="UTF-8" standalone="no"?><!-- Generator: Gravit.io --><svg xmlns="http://www.w3.org/2000/svg" xmlns:xlink="http://www.w3.org/1999/xlink" style="isolation:isolate" viewBox="0 0 50 50" width="50pt" height="50pt"><defs><clipPath id="_clipPath_6qlW7rKl7vdw8pawuFkxyICoeCBVBXCr"><rect width="50" height="50"/></clipPath></defs><g clip-path="url(#_clipPath_6qlW7rKl7vdw8pawuFkxyICoeCBVBXCr)"><path d=" M 37.45 37.45 L 12.55 37.45 L 12.55 12.55 L 25 12.55 L 25 8.993 L 12.55 8.993 C 10.585 8.993 8.993 10.585 8.993 12.55 L 8.993 37.45 C 8.993 39.415 10.585 41.007 12.55 41.007 L 37.45 41.007 C 39.407 41.007 41.007 39.407 41.007 37.45 L 41.007 25 L 37.45 25 L 37.45 37.45 Z  M 28.557 8.993 L 28.557 12.55 L 34.942 12.55 L 17.459 30.033 L 19.967 32.541 L 37.45 15.058 L 37.45 21.443 L 41.007 21.443 L 41.007 8.993 L 28.557 8.993 Z " fill="rgb(0,0,0)"/></g></svg>