<svg width="18px" height="18px" viewBox="0 0 24 24" xmlns="http://www.w3.org/2000/svg" fill="currentColor">
    <path d=" M 23.147 2.587 L 18.21 0.212 C 17.636 -0.066 16.952 0.051 16.503 0.501 L 7.047 9.129 L 2.926 6.004 C 2.543 5.711 2.004 5.735 1.648 6.059 L 0.328 7.262 C -0.109 7.656 -0.109 8.344 0.325 8.738 L 3.899 12 L 0.325 15.262 C -0.109 15.656 -0.109 16.344 0.328 16.738 L 1.648 17.941 C 2.008 18.265 2.543 18.289 2.926 17.996 L 7.047 14.867 L 16.508 23.499 C 16.953 23.949 17.636 24.066 18.211 23.788 L 23.153 21.409 C 23.672 21.159 24 20.636 24 20.058 L 24 3.937 C 24 3.362 23.668 2.835 23.149 2.586 L 23.147 2.587 Z  M 18.002 17.45 L 10.823 12.001 L 18.002 6.551 L 18.002 17.45 Z "/>
</svg>