<?xml version="1.0" encoding="UTF-8" standalone="no"?><!-- Generator: Gravit.io --><svg xmlns="http://www.w3.org/2000/svg" xmlns:xlink="http://www.w3.org/1999/xlink" style="isolation:isolate" viewBox="0 0 300 300" width="300pt" height="300pt"><defs><clipPath id="_clipPath_vW6qvUbAAvefw9QBYqeIW1QWXcE38jcO"><rect width="300" height="300"/></clipPath></defs><g clip-path="url(#_clipPath_vW6qvUbAAvefw9QBYqeIW1QWXcE38jcO)"><rect width="300" height="300" style="fill:rgb(0,110,176)" fill-opacity="0"/>
<path d=" M 99.002 184.805 C 96.546 185.061 94.058 185.648 91.61 186.594 C 78.44 191.679 71.373 205.198 75.84 216.765 L 75.84 216.765 C 80.306 228.332 94.624 233.594 107.794 228.509 C 117.549 224.743 123.956 216.349 124.808 207.549 L 125.274 194.288 L 127.806 130.856 L 190.063 118.56 L 187.95 167.286 C 185.486 167.541 182.991 168.129 180.535 169.077 C 167.365 174.163 160.299 187.682 164.765 199.249 L 164.765 199.249 C 169.231 210.816 183.549 216.078 196.72 210.993 C 207.414 206.863 214.084 197.172 213.822 187.481 L 213.83 187.482 L 214.219 174.219 L 216.991 85.968 C 217.287 76.554 209.991 70.204 200.708 71.796 L 118.715 85.86 C 109.432 87.452 101.666 96.387 101.382 105.801 L 99.002 184.805 Z " fill="rgb(0,0,0)"/></g></svg>